<svg xmlns="http://www.w3.org/2000/svg" xmlns:xlink="http://www.w3.org/1999/xlink" viewBox="0 0 194.48 200.47"><defs><style>.cls-1{fill:url(#linear-gradient);}</style><linearGradient id="linear-gradient" x1="97.24" x2="97.24" y2="200.47" gradientUnits="userSpaceOnUse"><stop offset="0" stop-color="#2af598"/><stop offset="0.17" stop-color="#26eda1"/><stop offset="0.45" stop-color="#1cd7bb"/><stop offset="0.8" stop-color="#0ab4e4"/><stop offset="0.99" stop-color="#009efd"/></linearGradient></defs><title>CAsset 2</title><g id="Layer_2" data-name="Layer 2"><g id="Layer_1-2" data-name="Layer 1"><path class="cls-1" d="M48.3,31.35c-6.61,23.89,3.73,36.07,31.92,49V11.63c-15.63.23-31-1.35-46.22.83C17.62,14.8,5.51,29.84,4.76,46.9,4.64,49.58,6.21,54.1,0,52.75V0H194.48V52.82c-5.74,1.31-4.55-2.71-4.65-5.36-.49-12.78-6.12-22.66-16.57-29.89a28.11,28.11,0,0,0-12.83-5.18c-15.75-1.72-31.54-.54-47.82-.82V95.23c7.91,4.16,16,8.26,23.85,12.61a83.07,83.07,0,0,1,17.42,12.77c13.32,12.74,17.73,27.89,12.19,45.77-3.91,12.63-10.77,23.53-19.15,34.09,6-18.32-4.2-28.49-17.74-37a118.49,118.49,0,0,0-10.92-6.17c-16.29-8-32.75-15.56-48.92-23.73-11.88-6-23.07-13.14-31.81-23.47-10.6-12.51-13.55-26.65-9-42.4C32.39,54.62,39.21,43.21,48.3,31.35Z"/></g></g></svg>