<?xml version="1.0" encoding="utf-8"?>
<!-- Generator: Adobe Illustrator 23.0.2, SVG Export Plug-In . SVG Version: 6.00 Build 0)  -->
<svg version="1.1" id="Layer_1" xmlns="http://www.w3.org/2000/svg" xmlns:xlink="http://www.w3.org/1999/xlink" x="0px" y="0px"
	 viewBox="0 0 1024 1024" style="enable-background:new 0 0 1024 1024;" xml:space="preserve">
<path d="M429.01,395.18c-11.2,40.52,6.33,61.17,54.13,83.11c0-38.67,0-77.02,0-116.54c-26.51,0.39-52.6-2.28-78.38,1.4
	c-27.77,3.97-48.3,29.47-49.59,58.41c-0.2,4.54,2.47,12.21-8.07,9.92c0-29.61,0-59.07,0-89.44c109.94,0,219.46,0,329.78,0
	c0,29.97,0,59.7,0,89.57c-9.74,2.22-7.71-4.6-7.88-9.09c-0.83-21.68-10.37-38.42-28.1-50.69c-6.6-4.57-13.94-7.93-21.75-8.78
	c-26.71-2.92-53.49-0.92-81.09-1.38c0,47.92,0,94.72,0,141.85c13.41,7.07,27.05,14.01,40.45,21.39
	c10.75,5.92,20.68,13.16,29.54,21.65c22.58,21.61,30.06,47.31,20.68,77.62c-6.63,21.42-18.27,39.91-32.47,57.82
	c10.24-31.08-7.13-48.32-30.09-62.72c-6-3.76-12.16-7.36-18.52-10.47c-27.62-13.49-55.53-26.38-82.95-40.24
	c-20.13-10.17-39.12-22.28-53.94-39.79c-17.96-21.22-22.96-45.19-15.18-71.91C402.03,434.64,413.6,415.3,429.01,395.18z"/>
</svg>
