<svg xmlns="http://www.w3.org/2000/svg" viewBox="0 0 264.12 125.57"><defs><style>.cls-1{fill:#fff;}</style></defs><title>CAsset 3</title><g id="Layer_2" data-name="Layer 2"><g id="Layer_1-2" data-name="Layer 1"><path class="cls-1" d="M0,0H38.2V9.37H23.79V54.23H14.41V9.37H0Z"/><path class="cls-1" d="M68.34,22.39a15.23,15.23,0,0,1,11.23,4.69,15.42,15.42,0,0,1,4.65,11.27A15.86,15.86,0,0,1,68.34,54.23H46V44.86H68.34A6.53,6.53,0,0,0,73,33.74a6.32,6.32,0,0,0-4.61-1.9H61.9a15.25,15.25,0,0,1-11.23-4.68A15.46,15.46,0,0,1,46,15.88,15.3,15.3,0,0,1,50.67,4.65,15.3,15.3,0,0,1,61.9,0H81V9.37H61.9a6.27,6.27,0,0,0-4.57,1.94,6.3,6.3,0,0,0-1.93,4.61,6.16,6.16,0,0,0,1.93,4.57,6.3,6.3,0,0,0,4.57,1.9Z"/><path class="cls-1" d="M92,0h9.38V14.1L96.77,9.37H92Z"/><path class="cls-1" d="M147.44,9.37h-38.2V0h38.2ZM141,31.84H109.24V22.39H141Zm6.43,22.39h-38.2V44.86h38.2Z"/><path class="cls-1" d="M164.64,54.23h-9.38V0h9.38Z"/><path class="cls-1" d="M194.78,22.39A15.22,15.22,0,0,1,206,27.08a15.42,15.42,0,0,1,4.65,11.27,15.86,15.86,0,0,1-15.88,15.88H172.46V44.86h22.32a6.53,6.53,0,0,0,4.61-11.12,6.32,6.32,0,0,0-4.61-1.9h-6.43a15.27,15.27,0,0,1-11.24-4.68,15.46,15.46,0,0,1-4.65-11.28,15.3,15.3,0,0,1,4.65-11.23A15.32,15.32,0,0,1,188.35,0h19.13V9.37H188.35a6.27,6.27,0,0,0-4.58,1.94,6.3,6.3,0,0,0-1.93,4.61,6.16,6.16,0,0,0,1.93,4.57,6.31,6.31,0,0,0,4.58,1.9Z"/><path class="cls-1" d="M244.36,0l19.76,54.23h-10l-14.8-40.52L224.61,54.23h-10L234.37,0Z"/><path class="cls-1" d="M22.27,95.19A14.55,14.55,0,0,1,33,99.66a15.18,15.18,0,0,1-10.72,25.91H1v-8.95H22.27a6.21,6.21,0,1,0,0-12.42H16.13A14.53,14.53,0,0,1,5.42,99.73a15.2,15.2,0,0,1,0-21.47,14.57,14.57,0,0,1,10.71-4.43H34.39v8.94H16.13a6,6,0,0,0-4.36,1.85A6,6,0,0,0,9.93,89a5.91,5.91,0,0,0,1.84,4.37,6.07,6.07,0,0,0,4.36,1.81Z"/><path class="cls-1" d="M41.93,73.83H78.37v8.94H64.62v42.8H55.68V82.77H41.93Z"/><path class="cls-1" d="M121.54,73.83h10.94L113.63,101.1v24.47h-8.94V101.1L85.84,73.83H96.7l12.42,18Z"/><path class="cls-1" d="M148.81,116.62h27.5v8.95H139.87V73.83h8.94Z"/><path class="cls-1" d="M220.21,82.77H183.77V73.83h36.44Zm-6.13,21.43H183.77v-9h30.31Zm6.13,21.37H183.77v-8.95h36.44Z"/><path class="cls-1" d="M249,95.19a14.53,14.53,0,0,1,10.71,4.47A15.18,15.18,0,0,1,249,125.57H227.68v-8.95H249a6.21,6.21,0,1,0,0-12.42h-6.14a14.55,14.55,0,0,1-10.72-4.47,15.17,15.17,0,0,1,10.72-25.9h18.26v8.94H242.83a6.19,6.19,0,0,0-4.36,10.61,6.06,6.06,0,0,0,4.36,1.81Z"/></g></g></svg>